<svg id="Capa_1" enable-background="new 0 0 511 511" height="512" viewBox="0 0 511 511" width="512" xmlns="http://www.w3.org/2000/svg"><g><g id="Filled_8_"><path d="m488.5 273.5h-466c-8.284 0-15-6.716-15-15v-20c0-8.284 6.716-15 15-15h466c8.284 0 15 6.716 15 15v20c0 8.284-6.716 15-15 15z" fill="#e46a4a"/><path d="m434.159 503.5h-357.318c-15.069 0-27.799-11.178-29.748-26.12l-26.593-203.88h470l-26.593 203.88c-1.949 14.942-14.679 26.12-29.748 26.12z" fill="#e46a4a"/><g fill="#db380e"><path d="m300.5 464.5c-11.046 0-20-8.954-20-20v-110c0-11.046 8.954-20 20-20 11.046 0 20 8.954 20 20v110c0 11.046-8.954 20-20 20z"/><path d="m390.5 464.5c-11.046 0-20-8.954-20-20v-110c0-11.046 8.954-20 20-20 11.046 0 20 8.954 20 20v110c0 11.046-8.954 20-20 20z"/><path d="m210.5 464.5c-11.046 0-20-8.954-20-20v-110c0-11.046 8.954-20 20-20 11.046 0 20 8.954 20 20v110c0 11.046-8.954 20-20 20z"/><path d="m120.5 464.5c-11.046 0-20-8.954-20-20v-110c0-11.046 8.954-20 20-20 11.046 0 20 8.954 20 20v110c0 11.046-8.954 20-20 20z"/></g><path d="m419.5 67.5h-112l-34 48v108h180v-108z" fill="#c4e5f9"/><path d="m295.5 193.5h158v30h-158z" fill="#a4d7f5"/><path d="m307.5 7.5h112v60h-112z" fill="#c4e5f9"/><path d="m307.5 37.5h112v30h-112z" fill="#a4d7f5"/><path d="m179.5 163.5h144v60h-144z" fill="#faef93"/><path d="m179.5 193.5h144v30h-144z" fill="#f8e868"/><path d="m34.881 223.5h111.697l-18.864-106.982c-11.508-65.268-45.088-113.901-75.002-108.626s-44.835 62.46-33.326 127.727z" fill="#dba999"/><g fill="#decba0"><path d="m139.175 181.515-44.316 7.814c-8.158 1.439-15.938-4.009-17.377-12.167-1.439-8.158 4.009-15.938 12.167-17.377l44.316-7.814z"/><path d="m79.231 100.697c-8.158 1.439-13.606 9.218-12.167 17.377 1.439 8.158 9.218 13.606 17.377 12.167l44.316-7.814-1.042-5.909c-1.427-8.095-3.195-15.932-5.252-23.444z"/></g><path d="m437.96 473.5h-364.92c-13.626 0-25.374-8.953-29.27-21.597l3.323 25.477c1.949 14.942 14.679 26.12 29.748 26.12h357.318c15.069 0 27.799-11.178 29.748-26.12l3.323-25.477c-3.896 12.644-15.643 21.597-29.27 21.597z" fill="#db380e"/><path d="m34.881 223.5h111.697l-5.289-30h-111.697z" fill="#d29380"/></g><g id="Outline_8_"><path d="m488.5 216h-27.5v-102.887l-34-47.999v-65.114h-127v65.114l-34 47.999v42.887h-94v60h-19.129l-17.771-100.785c-3.646-20.683-9.683-40.717-17.456-57.936l-13.672 6.173c3.337 7.391 6.33 15.357 8.928 23.691l-34.973 6.167c-12.218 2.154-20.404 13.847-18.25 26.065 1.922 10.902 11.438 18.596 22.147 18.595 1.292 0 2.602-.112 3.918-.344l36.93-6.512 2.604 14.771-36.931 6.512c-12.218 2.154-20.404 13.847-18.25 26.065 1.043 5.919 4.329 11.077 9.252 14.524 3.825 2.679 8.283 4.075 12.857 4.075 1.313 0 2.636-.115 3.956-.348l36.93-6.511 4.55 25.798h-96.465l-14.403-81.684c-2.503-14.191-3.772-28.238-3.772-41.752 0-42.286 12.754-74.067 31.015-77.287 1.042-.183 2.115-.277 3.189-.277 12.768 0 27.843 13.318 40.325 35.626l13.09-7.325c-15.625-27.923-34.595-43.301-53.415-43.301-1.945 0-3.895.17-5.795.505-26.37 4.65-43.409 40.786-43.409 92.059 0 14.384 1.346 29.308 4 44.357l13.944 79.079h-3.444c-12.406 0-22.5 10.093-22.5 22.5v20c0 9.278 5.645 17.26 13.68 20.697l25.976 199.153c2.428 18.614 18.414 32.65 37.185 32.65h111.147v-15h-111.147c-11.263 0-20.854-8.422-22.312-19.59l-10.097-77.41h30.068v-15h-32.024l-1.956-15h20.98v-15h-22.937l-9.522-73h84.459v-15h-91c-4.136 0-7.5-3.364-7.5-7.5v-20c0-4.136 3.364-7.5 7.5-7.5h201.857v-15h-37.357v-45h129v45h-76.643v15h249.143c4.136 0 7.5 3.364 7.5 7.5v20c0 4.136-3.364 7.5-7.5 7.5h-360v15h353.458l-1.957 15h-22.501v15h20.545l-8.567 65.671 14.874 1.94 12.967-99.415c8.035-3.437 13.68-11.42 13.68-20.697v-20c.001-12.406-10.093-22.499-22.499-22.499zm-405.361-93.146c-4.081.72-7.972-2.011-8.689-6.083-.718-4.073 2.011-7.97 6.084-8.688l36.396-6.418c1.18 4.824 2.226 9.728 3.129 14.679zm10.418 59.089c-1.976.349-3.964-.093-5.604-1.242-1.641-1.149-2.735-2.869-3.084-4.841-.718-4.073 2.011-7.971 6.084-8.688l36.93-6.512 2.605 14.772zm221.443-166.943h97v15h-42.5v15h42.5v15h-97zm63 201h-47v-60h-50v-33h97zm-89.997-108 23.375-33h93.619l-23.375 33zm157.997 30h-20.5v15h20.5v15h-34.5v15h34.5v33h-53v-98.113l26.5-37.412 26.5 37.412z"/><path d="m456.471 476.41c-1.457 11.168-11.049 19.59-22.312 19.59h-231.171v15h231.171c18.771 0 34.757-14.036 37.185-32.649l11.069-84.865-14.874-1.94z"/><path d="m328 444.5v-110c0-15.164-12.337-27.5-27.5-27.5s-27.5 12.336-27.5 27.5v110c0 15.164 12.337 27.5 27.5 27.5s27.5-12.336 27.5-27.5zm-40 0v-110c0-6.893 5.607-12.5 12.5-12.5s12.5 5.607 12.5 12.5v110c0 6.893-5.607 12.5-12.5 12.5s-12.5-5.607-12.5-12.5z"/><path d="m418 444.5v-110c0-15.164-12.337-27.5-27.5-27.5s-27.5 12.336-27.5 27.5v110c0 15.164 12.337 27.5 27.5 27.5s27.5-12.336 27.5-27.5zm-40 0v-110c0-6.893 5.607-12.5 12.5-12.5s12.5 5.607 12.5 12.5v110c0 6.893-5.607 12.5-12.5 12.5s-12.5-5.607-12.5-12.5z"/><path d="m238 444.5v-110c0-15.164-12.337-27.5-27.5-27.5s-27.5 12.336-27.5 27.5v110c0 15.164 12.337 27.5 27.5 27.5s27.5-12.336 27.5-27.5zm-40 0v-110c0-6.893 5.607-12.5 12.5-12.5s12.5 5.607 12.5 12.5v110c0 6.893-5.607 12.5-12.5 12.5s-12.5-5.607-12.5-12.5z"/><path d="m93 334.5v110c0 15.164 12.337 27.5 27.5 27.5s27.5-12.336 27.5-27.5v-110c0-15.164-12.337-27.5-27.5-27.5s-27.5 12.336-27.5 27.5zm40 0v110c0 6.893-5.607 12.5-12.5 12.5s-12.5-5.607-12.5-12.5v-110c0-6.893 5.607-12.5 12.5-12.5s12.5 5.607 12.5 12.5z"/></g><g fill="#fff"><path d="m427.5 296h15v15h-15z"/><path d="m339.5 30h15v15h-15z"/><path d="m53.5 33h15v15h-15z"/><path d="m73.5 63h15v15h-15z"/></g></g></svg>